<?xml version="1.0" encoding="UTF-8"?>
<svg id="Layer_1" data-name="Layer 1" xmlns="http://www.w3.org/2000/svg" viewBox="0 0 2000 1528.09">
  <defs>
    <style>
      .cls-1 {
        fill: none;
      }

      .cls-2 {
        fill: #017944;
      }
    </style>
  </defs>
  <rect class="cls-1" x="0" y="0" width="2000" height="1528.09"/>
  <g>
    <path class="cls-2" d="M1302.75,495.17c-16.32-73-33.8-146.85-57.63-215.76-4.22-12.03-8.78-24.41-15.86-35.07-14.5-22.98-37.97-28.34-63.12-23.53-17.81,2.31-52.49,8.55-77.49,13.33-31.27,6.01-60.2,11.8-90.1,20.74-28.57,8.26-50.58,15.21-55.94,46.97-9.52,58.61-13.91,109.86-18.98,165.54-7.38,75.99-7.15,165.48-2.37,243.36,6.44,182.51,20.12,369.51,54.28,548.41,4.32,21.97,9.2,44.04,14.72,65.82,5.75,25.61,15.57,42.68,43.17,39.53,42.78-5.69,79.24-29.29,114.32-52.72,11.8-7.9,24.09-17.81,27.53-31.92,2.6-9.59,1.04-20.97-1.11-31.14-22.04-102.36-45.51-204.65-64.91-307.59-16.54-89.48-32.76-179.68-40.14-270.47-.65-9.49-2.02-22.14.23-29.84l.1-.29c1.92-6.44,6.92-9.39,13.26-11.44,41.25-11.08,137.85-35.2,177.67-45.54,49.24-9.82,53.47-44.92,42.39-88.38ZM1090.69,525.5c-8.16,5.23-28.28,13.72-37.83,13.52h-.26c-7.38-1.07-6.18-7.96-6.47-20.48v-18.59c-.03-24.22-.07-56.95-.07-84.02,0-14.85-.03-29.22-.03-43.85,0-11.51-.49-18.53,4.16-23.47,5.95-6.05,16.74-10.47,24.83-7.64,4.29,1.56,5.4,9.04,5.95,14.24,3.87,33.74,13.55,117.47,17.06,148.9,1.01,8.58.81,16.35-7.35,21.39Z"/>
    <path class="cls-2" d="M1798.77,745.52c.75-181.24-5.56-365.9-32.5-545-3.28-20.87-7.05-41.87-11.41-62.54-2.96-14.69-8.55-32.6-22.88-37.71-28.41-8.55-59.87,6.27-85.39,17.62-16.45,7.96-32.93,17.58-48.63,27.47-11.54,7.28-24.28,16.48-28.77,29.38-3.22,8.97-2.11,19.05-.46,28.47,5.53,31.17,11.96,67.51,18.85,108.11,13.65,80.55,25.26,150.66,38.52,240.11l.1.71c26.33,178.48,46.06,302.03,40.27,452.85-.75,22.04-1.85,45.34-3.48,65.76-.88,10.63-2.86,21.39-7.74,28.38-4.29,6.76-13.59,10.82-20.74,5.92-8.39-5.85-9.52-19.28-10.47-29.48-14.72-194.51-26.13-390.54-61.53-582.54-3.31-21.13-13.42-38.32-36.14-36.21-37.22,4.03-77.43,14.89-113.38,23.99-13.72,3.93-28.28,6.96-40.79,13.52-28.73,15.08-20.15,53.7-18.82,80.87,7.38,91.27,24.31,190.05,40.4,282.4,15.34,87.21,30.03,178.12,52.01,265.66,11.77,48.2,24.7,103.2,82.89,109.12,19.47,2.21,37.84-1.3,57.05-3.77,25.48-3.71,53.99-7.77,81.59-13.52,42.84-7.54,81.85-34.19,95.46-77.04,8.81-25.87,11.7-53.96,15.83-80.51,7.54-54.25,13.98-101.97,17.52-158.72,3.48-51.06,2.86-103.04,2.63-153.29Z"/>
    <path class="cls-2" d="M1449.82,425.78c7.64-2.61,5.41-9.05,4.26-21.35-6.68-54.54-14.96-139.61-21.04-179.75-4.07-15.09-24.66-11.59-39.73-12.83-23.27.04-49.84-.83-69.45,13.16-11.7,8.85-1.06,22.57,5.24,36.84,9.78,20.3,19.55,40.58,29.46,61.15,12,24.91,29.12,60.43,38.8,80.53,3.95,7.39,5.82,15.09,12.99,19.36,10.88,5.15,29.68,5.17,39.18,2.99l.28-.09Z"/>
    <path class="cls-2" d="M1859.97,1120.36c-.07-3.48-.55-6.4-1.4-8.84-.88-2.41-2.73-4.19-5.53-5.36,4.97-2.24,7.48-5.95,7.48-11.15,0-4.49-1.66-7.77-4.94-9.88-3.28-2.08-7.28-3.15-11.99-3.15h-19.5v46.19h11.51v-17.78h4.55c2.6,0,4.55.52,5.85,1.53,1.3,1.01,2.08,2.73,2.37,5.2.07.42.19,1.56.32,3.35.16,1.82.33,3.41.49,4.78.19,1.36.42,2.34.71,2.93h11.15c-.65-1.72-1.01-4.32-1.07-7.8ZM1841.54,1102.9h-5.95v-13h6.18c4.84,0,7.25,1.98,7.25,5.95,0,4.71-2.47,7.05-7.48,7.05ZM1859.97,1120.36c-.07-3.48-.55-6.4-1.4-8.84-.88-2.41-2.73-4.19-5.53-5.36,4.97-2.24,7.48-5.95,7.48-11.15,0-4.49-1.66-7.77-4.94-9.88-3.28-2.08-7.28-3.15-11.99-3.15h-19.5v46.19h11.51v-17.78h4.55c2.6,0,4.55.52,5.85,1.53,1.3,1.01,2.08,2.73,2.37,5.2.07.42.19,1.56.32,3.35.16,1.82.33,3.41.49,4.78.19,1.36.42,2.34.71,2.93h11.15c-.65-1.72-1.01-4.32-1.07-7.8ZM1841.54,1102.9h-5.95v-13h6.18c4.84,0,7.25,1.98,7.25,5.95,0,4.71-2.47,7.05-7.48,7.05ZM1871.19,1076.19c-8.06-8.19-17.75-12.29-29.09-12.29s-21.32,4.06-29.48,12.19c-8.16,8.13-12.25,17.94-12.25,29.42s4.06,21.23,12.19,29.38c8.13,8.16,17.91,12.25,29.32,12.25s21.16-4.1,29.25-12.25c8.09-8.16,12.16-17.97,12.16-29.38s-4.03-21.13-12.09-29.32ZM1864.91,1128.97c-6.27,6.53-13.94,9.82-23.05,9.82s-16.71-3.28-23.01-9.82c-6.34-6.53-9.49-14.37-9.49-23.47s3.12-17.03,9.43-23.53c6.27-6.5,14.01-9.75,23.21-9.75s16.64,3.28,22.92,9.82c6.24,6.53,9.36,14.37,9.36,23.47s-3.12,16.93-9.36,23.47ZM1858.57,1111.52c-.88-2.41-2.73-4.19-5.53-5.36,4.97-2.24,7.48-5.95,7.48-11.15,0-4.49-1.66-7.77-4.94-9.88-3.28-2.08-7.28-3.15-11.99-3.15h-19.5v46.19h11.51v-17.78h4.55c2.6,0,4.55.52,5.85,1.53,1.3,1.01,2.08,2.73,2.37,5.2.07.42.19,1.56.32,3.35.16,1.82.33,3.41.49,4.78.19,1.36.42,2.34.71,2.93h11.15c-.65-1.72-1.01-4.32-1.07-7.8-.07-3.48-.55-6.4-1.4-8.84ZM1841.54,1102.9h-5.95v-13h6.18c4.84,0,7.25,1.98,7.25,5.95,0,4.71-2.47,7.05-7.48,7.05Z"/>
    <path class="cls-2" d="M801.26,290.92c10.41-1.59,19.97,6.13,20.5,16.65,4.67,92.41-6.77,276.04-6.1,388.15-3.5,173.38-10.14,335.97-10.8,364.47-.24,10.35-11.18,12.7-18.8,14.99-67.55,18.2-71.69-10.05-84.26-68.07-23.62-108.79-34.03-209.67-51.06-318.8-15.14-102.34-29.32-206.59-33.97-307.31-.25-14.89-2.37-34.05,2.73-48.73,2.13-6.13,7.63-10.47,14.04-11.45l167.71-29.89Z"/>
    <path class="cls-2" d="M1299.76,620.49c10.43-2.57,20.85,4.38,22.36,14.98,13.23,93.16,18.07,275.89,29.04,389.37,12.35,175.9,25.08,348.59,26.68,379.67.55,10.69-10.2,13.89-17.72,16.91-66.96,24.63-73.76-3.6-91.86-61.21-33.98-108-58.02-218.79-85.34-327.75-24.77-102.26-48.75-206.53-62.72-308.11-1.62-15.06-5.53-34.26-1.7-49.6,1.6-6.4,6.79-11.3,13.21-12.88l168.04-41.38Z"/>
    <g>
      <path class="cls-2" d="M221.75,1323.56c-29.71,0-58.59-3.59-85.34-11.62-14.61-4.39-22.9-19.79-18.51-34.41,4.39-14.61,19.8-22.91,34.41-18.51,74.16,22.28,209.89,3.28,308.64-67.07,47.47-33.92,89.97-76.18,126.28-125.58,9.04-12.3,26.33-14.94,38.62-5.9,12.3,9.04,14.94,26.33,5.9,38.62-39.78,54.13-86.45,100.5-138.72,137.84-66.89,47.65-173.45,86.63-271.29,86.63Z"/>
      <path class="cls-2" d="M667.05,1126.99c-.92,0-1.84-.06-2.77-.17-25.29-3.16-48.18-14.35-66.2-32.37-18.02-18.02-29.21-40.91-32.37-66.2-1.52-12.15,7.1-23.23,19.25-24.75,12.15-1.51,23.23,7.1,24.75,19.25,1.92,15.41,8.74,29.35,19.72,40.34,10.98,10.98,24.93,17.8,40.33,19.72,12.15,1.52,20.77,12.6,19.25,24.75-1.4,11.22-10.95,19.43-21.97,19.43Z"/>
    </g>
    <path class="cls-2" d="M262.11,1140.84c4.46,8.39,5.25,16.64,5.41,18.49,0,.05,0,.09.01.14.47,5.84,5.84,10.09,11.54,8.71,254.1-61.33,363.8-326.57,319.25-584.4-27.4-147.83-151.11-232.15-299.66-205.13l-113.51,23.76c-24.67,6.66-42.19,29.58-43.07,56.33l-14.6,440.08c-.14,4.3,2.73,8.01,6.85,9.24,2.36.71,4.71,1.56,7.03,2.55,20.92,9.07,34.43,28.15,37.32,49.23.69,5.01,5.36,8.34,10.41,8.08,12.15-.62,24.62,1.47,36.55,6.63,41.44,17.94,60.49,66.11,42.55,107.56-.45,1.04-.93,2.06-1.42,3.06-4.14,8.38-10.06,15.75-17.03,21.98l-3.06,2.74c-4.61,4.12-4.07,11.38,1,14.93,5,3.5,10.51,8.66,14.42,16.02ZM302.45,940.19c-8.63,3.48-17.78-3.64-17.47-13.31l10.79-339.73c7.09-42.53,89.55-12.73,106.26,10.05,92.67,102.19,14.08,296.95-99.57,342.99Z"/>
  </g>
</svg>